<svg height="1502" width="720" xmlns="http://www.w3.org/2000/svg">
<rect height="1502" fill="#555" width="720"></rect>
<text fill="#7f7" font-family="Courier New" font-size="12" xml:space="preserve">
<tspan x="10" y="26">26 megabytes installed</tspan>
<tspan x="10" y="42"></tspan>
<tspan x="10" y="58">node_modules</tspan>
<tspan x="10" y="74">└─┬ homebridge-foscamcamera@0.2.15 </tspan>
<tspan x="10" y="90">  ├─┬ foscam-client@0.4.0 </tspan>
<tspan x="10" y="106">  │ ├── q@1.5.0 </tspan>
<tspan x="10" y="122">  │ ├─┬ request-promise@2.0.1 </tspan>
<tspan x="10" y="138">  │ │ ├── bluebird@2.11.0 </tspan>
<tspan x="10" y="154">  │ │ ├── lodash@4.17.4 </tspan>
<tspan x="10" y="170">  │ │ └─┬ request@2.81.0 </tspan>
<tspan x="10" y="186">  │ │   ├── aws-sign2@0.6.0 </tspan>
<tspan x="10" y="202">  │ │   ├── aws4@1.6.0 </tspan>
<tspan x="10" y="218">  │ │   ├── caseless@0.12.0 </tspan>
<tspan x="10" y="234">  │ │   ├─┬ combined-stream@1.0.5 </tspan>
<tspan x="10" y="250">  │ │   │ └── delayed-stream@1.0.0 </tspan>
<tspan x="10" y="266">  │ │   ├── extend@3.0.0 </tspan>
<tspan x="10" y="282">  │ │   ├── forever-agent@0.6.1 </tspan>
<tspan x="10" y="298">  │ │   ├─┬ form-data@2.1.4 </tspan>
<tspan x="10" y="314">  │ │   │ └── asynckit@0.4.0 </tspan>
<tspan x="10" y="330">  │ │   ├─┬ har-validator@4.2.1 </tspan>
<tspan x="10" y="346">  │ │   │ ├─┬ ajv@4.11.7 </tspan>
<tspan x="10" y="362">  │ │   │ │ ├── co@4.6.0 </tspan>
<tspan x="10" y="378">  │ │   │ │ └─┬ json-stable-stringify@1.0.1 </tspan>
<tspan x="10" y="394">  │ │   │ │   └── jsonify@0.0.0 </tspan>
<tspan x="10" y="410">  │ │   │ └── har-schema@1.0.5 </tspan>
<tspan x="10" y="426">  │ │   ├─┬ hawk@3.1.3 </tspan>
<tspan x="10" y="442">  │ │   │ ├── boom@2.10.1 </tspan>
<tspan x="10" y="458">  │ │   │ ├── cryptiles@2.0.5 </tspan>
<tspan x="10" y="474">  │ │   │ ├── hoek@2.16.3 </tspan>
<tspan x="10" y="490">  │ │   │ └── sntp@1.0.9 </tspan>
<tspan x="10" y="506">  │ │   ├─┬ http-signature@1.1.1 </tspan>
<tspan x="10" y="522">  │ │   │ ├── assert-plus@0.2.0 </tspan>
<tspan x="10" y="538">  │ │   │ ├─┬ jsprim@1.4.0 </tspan>
<tspan x="10" y="554">  │ │   │ │ ├── assert-plus@1.0.0 </tspan>
<tspan x="10" y="570">  │ │   │ │ ├── extsprintf@1.0.2 </tspan>
<tspan x="10" y="586">  │ │   │ │ ├── json-schema@0.2.3 </tspan>
<tspan x="10" y="602">  │ │   │ │ └── verror@1.3.6 </tspan>
<tspan x="10" y="618">  │ │   │ └─┬ sshpk@1.13.0 </tspan>
<tspan x="10" y="634">  │ │   │   ├── assert-plus@1.0.0 </tspan>
<tspan x="10" y="650">  │ │   │   ├── bcrypt-pbkdf@1.0.1 </tspan>
<tspan x="10" y="666">  │ │   │   ├─┬ dashdash@1.14.1 </tspan>
<tspan x="10" y="682">  │ │   │   │ └── assert-plus@1.0.0 </tspan>
<tspan x="10" y="698">  │ │   │   ├── ecc-jsbn@0.1.1 </tspan>
<tspan x="10" y="714">  │ │   │   ├─┬ getpass@0.1.6 </tspan>
<tspan x="10" y="730">  │ │   │   │ └── assert-plus@1.0.0 </tspan>
<tspan x="10" y="746">  │ │   │   ├── jodid25519@1.0.2 </tspan>
<tspan x="10" y="762">  │ │   │   ├── jsbn@0.1.1 </tspan>
<tspan x="10" y="778">  │ │   │   └── tweetnacl@0.14.5 </tspan>
<tspan x="10" y="794">  │ │   ├── is-typedarray@1.0.0 </tspan>
<tspan x="10" y="810">  │ │   ├── isstream@0.1.2 </tspan>
<tspan x="10" y="826">  │ │   ├── json-stringify-safe@5.0.1 </tspan>
<tspan x="10" y="842">  │ │   ├─┬ mime-types@2.1.15 </tspan>
<tspan x="10" y="858">  │ │   │ └── mime-db@1.27.0 </tspan>
<tspan x="10" y="874">  │ │   ├── oauth-sign@0.8.2 </tspan>
<tspan x="10" y="890">  │ │   ├── performance-now@0.2.0 </tspan>
<tspan x="10" y="906">  │ │   ├── qs@6.4.0 </tspan>
<tspan x="10" y="922">  │ │   ├── safe-buffer@5.0.1 </tspan>
<tspan x="10" y="938">  │ │   ├── stringstream@0.0.5 </tspan>
<tspan x="10" y="954">  │ │   ├─┬ tough-cookie@2.3.2 </tspan>
<tspan x="10" y="970">  │ │   │ └── punycode@1.4.1 </tspan>
<tspan x="10" y="986">  │ │   ├── tunnel-agent@0.6.0 </tspan>
<tspan x="10" y="1002">  │ │   └── uuid@3.0.1 </tspan>
<tspan x="10" y="1018">  │ └─┬ xml2js@0.4.17 </tspan>
<tspan x="10" y="1034">  │   ├── sax@1.2.2 </tspan>
<tspan x="10" y="1050">  │   └── xmlbuilder@4.2.1 </tspan>
<tspan x="10" y="1066">  └─┬ homebridge-foscam-stream@0.3.11 </tspan>
<tspan x="10" y="1082">    ├─┬ foscam-binary-client@0.2.1 </tspan>
<tspan x="10" y="1098">    │ ├── nan@2.6.2 </tspan>
<tspan x="10" y="1114">    │ └─┬ node-rsa@0.4.2 </tspan>
<tspan x="10" y="1130">    │   └── asn1@0.2.3 </tspan>
<tspan x="10" y="1146">    ├── ip@1.1.5 </tspan>
<tspan x="10" y="1162">    ├─┬ node-opus@0.2.6 </tspan>
<tspan x="10" y="1178">    │ ├── bindings@1.2.1 </tspan>
<tspan x="10" y="1194">    │ └─┬ ogg-packet@1.0.0 </tspan>
<tspan x="10" y="1210">    │   └─┬ ref-struct@1.1.0 </tspan>
<tspan x="10" y="1226">    │     └── ref@1.3.4 </tspan>
<tspan x="10" y="1242">    ├─┬ rtsp-stream@1.0.0 </tspan>
<tspan x="10" y="1258">    │ ├─┬ debug@2.6.4 </tspan>
<tspan x="10" y="1274">    │ │ └── ms@0.7.3 </tspan>
<tspan x="10" y="1290">    │ ├─┬ http-headers@1.2.0 </tspan>
<tspan x="10" y="1306">    │ │ └── strip-lines@1.0.1 </tspan>
<tspan x="10" y="1322">    │ ├── next-line@1.1.0 </tspan>
<tspan x="10" y="1338">    │ └─┬ readable-stream@2.2.9 </tspan>
<tspan x="10" y="1354">    │   ├── buffer-shims@1.0.0 </tspan>
<tspan x="10" y="1370">    │   ├── core-util-is@1.0.2 </tspan>
<tspan x="10" y="1386">    │   ├── inherits@2.0.3 </tspan>
<tspan x="10" y="1402">    │   ├── isarray@1.0.0 </tspan>
<tspan x="10" y="1418">    │   ├── process-nextick-args@1.0.7 </tspan>
<tspan x="10" y="1434">    │   ├── string_decoder@1.0.0 </tspan>
<tspan x="10" y="1450">    │   └── util-deprecate@1.0.2 </tspan>
<tspan x="10" y="1466">    ├── sdp-transform@1.7.0 </tspan>
<tspan x="10" y="1482">    └── www-authenticate@0.6.2</tspan>
</text>
</svg>
